<?xml version="1.0" encoding="UTF-8" standalone="no"?>
<!-- Generated by graphviz version 2.40.1 (20161225.0304)
 -->

<!-- Title: Git Pages: 1 -->

<svg
   xmlns:dc="http://purl.org/dc/elements/1.1/"
   xmlns:cc="http://creativecommons.org/ns#"
   xmlns:rdf="http://www.w3.org/1999/02/22-rdf-syntax-ns#"
   xmlns:svg="http://www.w3.org/2000/svg"
   xmlns="http://www.w3.org/2000/svg"
   xmlns:sodipodi="http://sodipodi.sourceforge.net/DTD/sodipodi-0.dtd"
   xmlns:inkscape="http://www.inkscape.org/namespaces/inkscape"
   width="621pt"
   height="372pt"
   viewBox="0.00 0.00 621.00 372.00"
   version="1.1"
   id="svg87"
   sodipodi:docname="3-create-branch.svg"
   inkscape:version="0.92.2 (5c3e80d, 2017-08-06)"
   inkscape:export-filename="D:\data\projekte\git-vortrag\git-paper\images\3-create-branch.png"
   inkscape:export-xdpi="96"
   inkscape:export-ydpi="96">
  <metadata
     id="metadata93">
    <rdf:RDF>
      <cc:Work
         rdf:about="">
        <dc:format>image/svg+xml</dc:format>
        <dc:type
           rdf:resource="http://purl.org/dc/dcmitype/StillImage" />
      </cc:Work>
    </rdf:RDF>
  </metadata>
  <defs
     id="defs91" />
  <sodipodi:namedview
     pagecolor="#ffffff"
     bordercolor="#666666"
     borderopacity="1"
     objecttolerance="10"
     gridtolerance="10"
     guidetolerance="10"
     inkscape:pageopacity="0"
     inkscape:pageshadow="2"
     inkscape:window-width="1920"
     inkscape:window-height="1017"
     id="namedview89"
     showgrid="false"
     inkscape:zoom="0.42270531"
     inkscape:cx="414"
     inkscape:cy="248"
     inkscape:window-x="-6"
     inkscape:window-y="-6"
     inkscape:window-maximized="1"
     inkscape:current-layer="graph0" />
  <g
     id="graph0"
     class="graph"
     transform="scale(1 1) rotate(0) translate(4 368)">
    <title
       id="title2">Git</title>
    <!-- A -->
    <g
       id="node1"
       class="node">
      <title
         id="title9">A</title>
      <path
         fill="#f0efe8"
         stroke="#000000"
         stroke-width="0"
         d="M139,-164C139,-164 12,-164 12,-164 6,-164 0,-158 0,-152 0,-152 0,-120 0,-120 0,-114 6,-108 12,-108 12,-108 139,-108 139,-108 145,-108 151,-114 151,-120 151,-120 151,-152 151,-152 151,-158 145,-164 139,-164"
         id="path11" />
      <text
         text-anchor="middle"
         x="75.5"
         y="-130"
         font-family="Menlo, Monaco, Consolas, Lucida Console, Courier New, monospace"
         font-size="20.00"
         fill="#000000"
         id="text13">deadbeef</text>
    </g>
    <!-- B -->
    <g
       id="node2"
       class="node">
      <title
         id="title16">B</title>
      <path
         fill="#f0efe8"
         stroke="#000000"
         stroke-width="0"
         d="M362,-164C362,-164 235,-164 235,-164 229,-164 223,-158 223,-152 223,-152 223,-120 223,-120 223,-114 229,-108 235,-108 235,-108 362,-108 362,-108 368,-108 374,-114 374,-120 374,-120 374,-152 374,-152 374,-158 368,-164 362,-164"
         id="path18" />
      <text
         text-anchor="middle"
         x="298.5"
         y="-130"
         font-family="Menlo, Monaco, Consolas, Lucida Console, Courier New, monospace"
         font-size="20.00"
         fill="#000000"
         id="text20">00cafefe</text>
    </g>
    <!-- A&#45;&gt;B -->
    <g
       id="edge1"
       class="edge">
      <title
         id="title23">A-&gt;B</title>
      <path
         fill="none"
         stroke="#8f8a83"
         stroke-width="2"
         d="M161.4571,-136C181.7075,-136 203.1458,-136 222.9009,-136"
         id="path25" />
      <polygon
         fill="#8f8a83"
         stroke="#8f8a83"
         stroke-width="2"
         points="161.3088,-132.5001 151.3088,-136 161.3088,-139.5001 161.3088,-132.5001"
         id="polygon27" />
    </g>
    <!-- C -->
    <g
       id="node3"
       class="node">
      <title
         id="title30">C</title>
      <path
         fill="#f0efe8"
         stroke="#000000"
         stroke-width="0"
         d="M585,-164C585,-164 458,-164 458,-164 452,-164 446,-158 446,-152 446,-152 446,-120 446,-120 446,-114 452,-108 458,-108 458,-108 585,-108 585,-108 591,-108 597,-114 597,-120 597,-120 597,-152 597,-152 597,-158 591,-164 585,-164"
         id="path32" />
      <text
         text-anchor="middle"
         x="521.5"
         y="-130"
         font-family="Menlo, Monaco, Consolas, Lucida Console, Courier New, monospace"
         font-size="20.00"
         fill="#000000"
         id="text34">50fac0de</text>
    </g>
    <!-- B&#45;&gt;C -->
    <g
       id="edge2"
       class="edge">
      <title
         id="title37">B-&gt;C</title>
      <path
         fill="none"
         stroke="#8f8a83"
         stroke-width="2"
         d="M384.4571,-136C404.7075,-136 426.1458,-136 445.9009,-136"
         id="path39" />
      <polygon
         fill="#8f8a83"
         stroke="#8f8a83"
         stroke-width="2"
         points="384.3088,-132.5001 374.3088,-136 384.3088,-139.5001 384.3088,-132.5001"
         id="polygon41" />
    </g>
    <!-- master -->
    <g
       id="node5"
       class="node">
      <title
         id="title44">master</title>
      <polygon
         fill="#e93a1d"
         stroke="#000000"
         stroke-width="0"
         points="597,-256 446,-256 446,-200 597,-200 597,-256"
         id="polygon46" />
      <text
         text-anchor="middle"
         x="521.5"
         y="-222"
         font-family="Menlo, Monaco, Consolas, Lucida Console, Courier New, monospace"
         font-size="20.00"
         fill="#ffffff"
         id="text48">master</text>
    </g>
    <!-- C&#45;&gt;master -->
    <g
       id="edge3"
       class="edge">
      <title
         id="title51">C-&gt;master</title>
      <path
         fill="none"
         stroke="#8f8a83"
         stroke-width="2"
         d="M521.5,-174.288C521.5,-182.6966 521.5,-191.1053 521.5,-199.5139"
         id="path53" />
      <polygon
         fill="#8f8a83"
         stroke="#8f8a83"
         stroke-width="2"
         points="525.0001,-174.0312 521.5,-164.0313 518.0001,-174.0313 525.0001,-174.0312"
         id="polygon55" />
    </g>
    <!-- topic -->
    <g
       id="node6"
       class="node">
      <title
         id="title58">topic</title>
      <polygon
         fill="#e93a1d"
         stroke="#000000"
         stroke-width="0"
         points="597,-72 446,-72 446,-16 597,-16 597,-72"
         id="polygon60" />
      <text
         text-anchor="middle"
         x="521.5"
         y="-38"
         font-family="Menlo, Monaco, Consolas, Lucida Console, Courier New, monospace"
         font-size="20.00"
         fill="#ffffff"
         id="text62">topic</text>
    </g>
    <!-- C&#45;&gt;topic -->
    <g
       id="edge5"
       class="edge">
      <title
         id="title65">C-&gt;topic</title>
      <path
         fill="none"
         stroke="#8f8a83"
         stroke-width="2"
         d="M521.5,-97.2572C521.5,-88.8486 521.5,-80.4399 521.5,-72.0313"
         id="path67" />
      <polygon
         fill="#8f8a83"
         stroke="#8f8a83"
         stroke-width="2"
         points="518.0001,-97.5139 521.5,-107.5139 525.0001,-97.514 518.0001,-97.5139"
         id="polygon69" />
    </g>
    <!-- HEAD -->
    <g
       id="node4"
       class="node">
      <title
         id="title72">HEAD</title>
      <polygon
         fill="#c8a036"
         stroke="#000000"
         stroke-width="0"
         points="597,-348 446,-348 446,-292 597,-292 597,-348"
         id="polygon74" />
      <text
         text-anchor="middle"
         x="521.5"
         y="-314"
         font-family="Menlo, Monaco, Consolas, Lucida Console, Courier New, monospace"
         font-size="20.00"
         fill="#ffffff"
         id="text76">HEAD</text>
    </g>
    <!-- master&#45;&gt;HEAD -->
    <g
       id="edge4"
       class="edge">
      <title
         id="title79">master-&gt;HEAD</title>
      <path
         fill="none"
         stroke="#8f8a83"
         stroke-width="2"
         d="M521.5,-266.288C521.5,-274.6966 521.5,-283.1053 521.5,-291.5139"
         id="path81" />
      <polygon
         fill="#8f8a83"
         stroke="#8f8a83"
         stroke-width="2"
         points="525.0001,-266.0312 521.5,-256.0313 518.0001,-266.0313 525.0001,-266.0312"
         id="polygon83" />
    </g>
  </g>
</svg>
