<?xml version="1.0" encoding="UTF-8" standalone="no"?>
<!-- Generated by graphviz version 2.40.1 (20161225.0304)
 -->

<!-- Title: Git Pages: 1 -->

<svg
   xmlns:dc="http://purl.org/dc/elements/1.1/"
   xmlns:cc="http://creativecommons.org/ns#"
   xmlns:rdf="http://www.w3.org/1999/02/22-rdf-syntax-ns#"
   xmlns:svg="http://www.w3.org/2000/svg"
   xmlns="http://www.w3.org/2000/svg"
   xmlns:sodipodi="http://sodipodi.sourceforge.net/DTD/sodipodi-0.dtd"
   xmlns:inkscape="http://www.inkscape.org/namespaces/inkscape"
   width="828pt"
   height="448pt"
   viewBox="0.00 0.00 828.00 448.00"
   version="1.1"
   id="svg115"
   sodipodi:docname="diverged-history.svg"
   inkscape:version="0.92.2 (5c3e80d, 2017-08-06)">
  <metadata
     id="metadata121">
    <rdf:RDF>
      <cc:Work
         rdf:about="">
        <dc:format>image/svg+xml</dc:format>
        <dc:type
           rdf:resource="http://purl.org/dc/dcmitype/StillImage" />
      </cc:Work>
    </rdf:RDF>
  </metadata>
  <defs
     id="defs119" />
  <sodipodi:namedview
     pagecolor="#ffffff"
     bordercolor="#666666"
     borderopacity="1"
     objecttolerance="10"
     gridtolerance="10"
     guidetolerance="10"
     inkscape:pageopacity="0"
     inkscape:pageshadow="2"
     inkscape:window-width="1920"
     inkscape:window-height="1017"
     id="namedview117"
     showgrid="false"
     inkscape:zoom="1.2146342"
     inkscape:cx="551.99999"
     inkscape:cy="293.33334"
     inkscape:window-x="-6"
     inkscape:window-y="-6"
     inkscape:window-maximized="1"
     inkscape:current-layer="graph0" />
  <g
     id="graph0"
     class="graph"
     transform="scale(1 1) rotate(0) translate(4 444)">
    <title
       id="title2">Git</title>
    <!-- A -->
    <g
       id="node1"
       class="node">
      <title
         id="title9">A</title>
      <path
         fill="#f0efe8"
         stroke="#000000"
         stroke-width="0"
         d="M139,-240C139,-240 12,-240 12,-240 6,-240 0,-234 0,-228 0,-228 0,-196 0,-196 0,-190 6,-184 12,-184 12,-184 139,-184 139,-184 145,-184 151,-190 151,-196 151,-196 151,-228 151,-228 151,-234 145,-240 139,-240"
         id="path11" />
      <text
         text-anchor="middle"
         x="75.5"
         y="-206"
         font-family="Menlo, Monaco, Consolas, Lucida Console, Courier New, monospace"
         font-size="20.00"
         fill="#000000"
         id="text13">A</text>
    </g>
    <!-- B -->
    <g
       id="node2"
       class="node">
      <title
         id="title16">B</title>
      <path
         fill="#f0efe8"
         stroke="#000000"
         stroke-width="0"
         d="M362,-240C362,-240 235,-240 235,-240 229,-240 223,-234 223,-228 223,-228 223,-196 223,-196 223,-190 229,-184 235,-184 235,-184 362,-184 362,-184 368,-184 374,-190 374,-196 374,-196 374,-228 374,-228 374,-234 368,-240 362,-240"
         id="path18" />
      <text
         text-anchor="middle"
         x="298.5"
         y="-206"
         font-family="Menlo, Monaco, Consolas, Lucida Console, Courier New, monospace"
         font-size="20.00"
         fill="#000000"
         id="text20">B</text>
    </g>
    <!-- A&#45;&gt;B -->
    <g
       id="edge1"
       class="edge">
      <title
         id="title23">A-&gt;B</title>
      <path
         fill="none"
         stroke="#8f8a83"
         stroke-width="2"
         d="M161.4571,-212C181.7075,-212 203.1458,-212 222.9009,-212"
         id="path25" />
      <polygon
         fill="#8f8a83"
         stroke="#8f8a83"
         stroke-width="2"
         points="161.3088,-208.5001 151.3088,-212 161.3088,-215.5001 161.3088,-208.5001"
         id="polygon27" />
    </g>
    <!-- E -->
    <g
       id="node3"
       class="node">
      <title
         id="title30">E</title>
      <path
         fill="#f0efe8"
         stroke="#000000"
         stroke-width="0"
         d="M585,-240C585,-240 458,-240 458,-240 452,-240 446,-234 446,-228 446,-228 446,-196 446,-196 446,-190 452,-184 458,-184 458,-184 585,-184 585,-184 591,-184 597,-190 597,-196 597,-196 597,-228 597,-228 597,-234 591,-240 585,-240"
         id="path32" />
      <text
         text-anchor="middle"
         x="521.5"
         y="-206"
         font-family="Menlo, Monaco, Consolas, Lucida Console, Courier New, monospace"
         font-size="20.00"
         fill="#000000"
         id="text34">E</text>
    </g>
    <!-- B&#45;&gt;E -->
    <g
       id="edge2"
       class="edge">
      <title
         id="title37">B-&gt;E</title>
      <path
         fill="none"
         stroke="#8f8a83"
         stroke-width="2"
         d="M384.4571,-212C404.7075,-212 426.1458,-212 445.9009,-212"
         id="path39" />
      <polygon
         fill="#8f8a83"
         stroke="#8f8a83"
         stroke-width="2"
         points="384.3088,-208.5001 374.3088,-212 384.3088,-215.5001 384.3088,-208.5001"
         id="polygon41" />
    </g>
    <!-- C -->
    <g
       id="node4"
       class="node">
      <title
         id="title44">C</title>
      <path
         fill="#f0efe8"
         stroke="#000000"
         stroke-width="0"
         d="M585,-148C585,-148 458,-148 458,-148 452,-148 446,-142 446,-136 446,-136 446,-104 446,-104 446,-98 452,-92 458,-92 458,-92 585,-92 585,-92 591,-92 597,-98 597,-104 597,-104 597,-136 597,-136 597,-142 591,-148 585,-148"
         id="path46" />
      <text
         text-anchor="middle"
         x="521.5"
         y="-114"
         font-family="Menlo, Monaco, Consolas, Lucida Console, Courier New, monospace"
         font-size="20.00"
         fill="#000000"
         id="text48">C</text>
    </g>
    <!-- B&#45;&gt;C -->
    <g
       id="edge3"
       class="edge">
      <title
         id="title51">B-&gt;C</title>
      <path
         fill="none"
         stroke="#8f8a83"
         stroke-width="2"
         d="M376.1267,-179.9746C401.2908,-169.593 428.9982,-158.1622 453.4141,-148.0892"
         id="path53" />
      <polygon
         fill="#8f8a83"
         stroke="#8f8a83"
         stroke-width="2"
         points="374.5284,-176.8478 366.6191,-183.8971 377.1981,-183.3187 374.5284,-176.8478"
         id="polygon55" />
    </g>
    <!-- master -->
    <g
       id="node7"
       class="node">
      <title
         id="title58">master</title>
      <polygon
         fill="#e93a1d"
         stroke="#000000"
         stroke-width="0"
         points="597,-332 446,-332 446,-276 597,-276 597,-332"
         id="polygon60" />
      <text
         text-anchor="middle"
         x="521.5"
         y="-298"
         font-family="Menlo, Monaco, Consolas, Lucida Console, Courier New, monospace"
         font-size="20.00"
         fill="#ffffff"
         id="text62">master</text>
    </g>
    <!-- E&#45;&gt;master -->
    <g
       id="edge5"
       class="edge">
      <title
         id="title65">E-&gt;master</title>
      <path
         fill="none"
         stroke="#8f8a83"
         stroke-width="2"
         d="M521.5,-250.288C521.5,-258.6966 521.5,-267.1053 521.5,-275.5139"
         id="path67" />
      <polygon
         fill="#8f8a83"
         stroke="#8f8a83"
         stroke-width="2"
         points="525.0001,-250.0312 521.5,-240.0313 518.0001,-250.0313 525.0001,-250.0312"
         id="polygon69" />
    </g>
    <!-- D -->
    <g
       id="node5"
       class="node">
      <title
         id="title72">D</title>
      <path
         fill="#f0efe8"
         stroke="#000000"
         stroke-width="0"
         d="M808,-148C808,-148 681,-148 681,-148 675,-148 669,-142 669,-136 669,-136 669,-104 669,-104 669,-98 675,-92 681,-92 681,-92 808,-92 808,-92 814,-92 820,-98 820,-104 820,-104 820,-136 820,-136 820,-142 814,-148 808,-148"
         id="path74" />
      <text
         text-anchor="middle"
         x="744.5"
         y="-114"
         font-family="Menlo, Monaco, Consolas, Lucida Console, Courier New, monospace"
         font-size="20.00"
         fill="#000000"
         id="text76">D</text>
    </g>
    <!-- C&#45;&gt;D -->
    <g
       id="edge4"
       class="edge">
      <title
         id="title79">C-&gt;D</title>
      <path
         fill="none"
         stroke="#8f8a83"
         stroke-width="2"
         d="M607.4571,-120C627.7075,-120 649.1458,-120 668.9009,-120"
         id="path81" />
      <polygon
         fill="#8f8a83"
         stroke="#8f8a83"
         stroke-width="2"
         points="607.3088,-116.5001 597.3088,-120 607.3088,-123.5001 607.3088,-116.5001"
         id="polygon83" />
    </g>
    <!-- topic -->
    <g
       id="node8"
       class="node">
      <title
         id="title86">topic</title>
      <polygon
         fill="#e93a1d"
         stroke="#000000"
         stroke-width="0"
         points="820,-56 669,-56 669,0 820,0 820,-56"
         id="polygon88" />
      <text
         text-anchor="middle"
         x="744.5"
         y="-22"
         font-family="Menlo, Monaco, Consolas, Lucida Console, Courier New, monospace"
         font-size="20.00"
         fill="#ffffff"
         id="text90">topic</text>
    </g>
    <!-- D&#45;&gt;topic -->
    <g
       id="edge7"
       class="edge">
      <title
         id="title93">D-&gt;topic</title>
      <path
         fill="none"
         stroke="#8f8a83"
         stroke-width="2"
         d="M744.5,-81.2572C744.5,-72.8486 744.5,-64.4399 744.5,-56.0313"
         id="path95" />
      <polygon
         fill="#8f8a83"
         stroke="#8f8a83"
         stroke-width="2"
         points="741.0001,-81.5139 744.5,-91.5139 748.0001,-81.514 741.0001,-81.5139"
         id="polygon97" />
    </g>
    <!-- HEAD -->
    <g
       id="node6"
       class="node">
      <title
         id="title100">HEAD</title>
      <polygon
         fill="#c8a036"
         stroke="#000000"
         stroke-width="0"
         points="597,-424 446,-424 446,-368 597,-368 597,-424"
         id="polygon102" />
      <text
         text-anchor="middle"
         x="521.5"
         y="-390"
         font-family="Menlo, Monaco, Consolas, Lucida Console, Courier New, monospace"
         font-size="20.00"
         fill="#ffffff"
         id="text104">HEAD</text>
    </g>
    <!-- master&#45;&gt;HEAD -->
    <g
       id="edge6"
       class="edge">
      <title
         id="title107">master-&gt;HEAD</title>
      <path
         fill="none"
         stroke="#8f8a83"
         stroke-width="2"
         d="M521.5,-342.288C521.5,-350.6966 521.5,-359.1053 521.5,-367.5139"
         id="path109" />
      <polygon
         fill="#8f8a83"
         stroke="#8f8a83"
         stroke-width="2"
         points="525.0001,-342.0312 521.5,-332.0313 518.0001,-342.0313 525.0001,-342.0312"
         id="polygon111" />
    </g>
  </g>
</svg>
