<?xml version="1.0" encoding="UTF-8" standalone="no"?>
<!-- Generated by graphviz version 2.40.1 (20161225.0304)
 -->

<!-- Title: Git Pages: 1 -->

<svg
   xmlns:dc="http://purl.org/dc/elements/1.1/"
   xmlns:cc="http://creativecommons.org/ns#"
   xmlns:rdf="http://www.w3.org/1999/02/22-rdf-syntax-ns#"
   xmlns:svg="http://www.w3.org/2000/svg"
   xmlns="http://www.w3.org/2000/svg"
   xmlns:sodipodi="http://sodipodi.sourceforge.net/DTD/sodipodi-0.dtd"
   xmlns:inkscape="http://www.inkscape.org/namespaces/inkscape"
   width="1067pt"
   height="511pt"
   viewBox="0.00 0.00 1067.00 511.00"
   version="1.1"
   id="svg139"
   sodipodi:docname="diverged-history-merge.svg"
   inkscape:version="0.92.2 (5c3e80d, 2017-08-06)">
  <metadata
     id="metadata145">
    <rdf:RDF>
      <cc:Work
         rdf:about="">
        <dc:format>image/svg+xml</dc:format>
        <dc:type
           rdf:resource="http://purl.org/dc/dcmitype/StillImage" />
      </cc:Work>
    </rdf:RDF>
  </metadata>
  <defs
     id="defs143" />
  <sodipodi:namedview
     pagecolor="#ffffff"
     bordercolor="#666666"
     borderopacity="1"
     objecttolerance="10"
     gridtolerance="10"
     guidetolerance="10"
     inkscape:pageopacity="0"
     inkscape:pageshadow="2"
     inkscape:window-width="1920"
     inkscape:window-height="1017"
     id="namedview141"
     showgrid="false"
     inkscape:zoom="0.95493771"
     inkscape:cx="700.66665"
     inkscape:cy="330.00001"
     inkscape:window-x="-6"
     inkscape:window-y="-6"
     inkscape:window-maximized="1"
     inkscape:current-layer="graph0" />
  <g
     id="graph0"
     class="graph"
     transform="scale(1 1) rotate(0) translate(4 507)">
    <title
       id="title2">Git</title>
    <g
       id="clust1"
       class="cluster">
      <title
         id="title4">cluster_master</title>
    </g>
    <!-- A -->
    <g
       id="node1"
       class="node">
      <title
         id="title7">A</title>
      <path
         fill="#f0efe8"
         stroke="#000000"
         stroke-width="0"
         d="M139,-303C139,-303 12,-303 12,-303 6,-303 0,-297 0,-291 0,-291 0,-259 0,-259 0,-253 6,-247 12,-247 12,-247 139,-247 139,-247 145,-247 151,-253 151,-259 151,-259 151,-291 151,-291 151,-297 145,-303 139,-303"
         id="path9" />
      <text
         text-anchor="middle"
         x="75.5"
         y="-269"
         font-family="Menlo, Monaco, Consolas, Lucida Console, Courier New, monospace"
         font-size="20.00"
         fill="#000000"
         id="text11">A</text>
    </g>
    <!-- B -->
    <g
       id="node2"
       class="node">
      <title
         id="title14">B</title>
      <path
         fill="#f0efe8"
         stroke="#000000"
         stroke-width="0"
         d="M362,-303C362,-303 235,-303 235,-303 229,-303 223,-297 223,-291 223,-291 223,-259 223,-259 223,-253 229,-247 235,-247 235,-247 362,-247 362,-247 368,-247 374,-253 374,-259 374,-259 374,-291 374,-291 374,-297 368,-303 362,-303"
         id="path16" />
      <text
         text-anchor="middle"
         x="298.5"
         y="-269"
         font-family="Menlo, Monaco, Consolas, Lucida Console, Courier New, monospace"
         font-size="20.00"
         fill="#000000"
         id="text18">B</text>
    </g>
    <!-- A&#45;&gt;B -->
    <g
       id="edge1"
       class="edge">
      <title
         id="title21">A-&gt;B</title>
      <path
         fill="none"
         stroke="#8f8a83"
         stroke-width="2"
         d="M161.4571,-275C181.7075,-275 203.1458,-275 222.9009,-275"
         id="path23" />
      <polygon
         fill="#8f8a83"
         stroke="#8f8a83"
         stroke-width="2"
         points="161.3088,-271.5001 151.3088,-275 161.3088,-278.5001 161.3088,-271.5001"
         id="polygon25" />
    </g>
    <!-- E -->
    <g
       id="node3"
       class="node">
      <title
         id="title28">E</title>
      <path
         fill="#f0efe8"
         stroke="#000000"
         stroke-width="0"
         d="M585,-303C585,-303 458,-303 458,-303 452,-303 446,-297 446,-291 446,-291 446,-259 446,-259 446,-253 452,-247 458,-247 458,-247 585,-247 585,-247 591,-247 597,-253 597,-259 597,-259 597,-291 597,-291 597,-297 591,-303 585,-303"
         id="path30" />
      <text
         text-anchor="middle"
         x="521.5"
         y="-269"
         font-family="Menlo, Monaco, Consolas, Lucida Console, Courier New, monospace"
         font-size="20.00"
         fill="#000000"
         id="text32">E</text>
    </g>
    <!-- B&#45;&gt;E -->
    <g
       id="edge2"
       class="edge">
      <title
         id="title35">B-&gt;E</title>
      <path
         fill="none"
         stroke="#8f8a83"
         stroke-width="2"
         d="M384.4571,-275C404.7075,-275 426.1458,-275 445.9009,-275"
         id="path37" />
      <polygon
         fill="#8f8a83"
         stroke="#8f8a83"
         stroke-width="2"
         points="384.3088,-271.5001 374.3088,-275 384.3088,-278.5001 384.3088,-271.5001"
         id="polygon39" />
    </g>
    <!-- C -->
    <g
       id="node6"
       class="node">
      <title
         id="title42">C</title>
      <path
         fill="#f0efe8"
         stroke="#000000"
         stroke-width="0"
         d="M585,-148C585,-148 458,-148 458,-148 452,-148 446,-142 446,-136 446,-136 446,-104 446,-104 446,-98 452,-92 458,-92 458,-92 585,-92 585,-92 591,-92 597,-98 597,-104 597,-104 597,-136 597,-136 597,-142 591,-148 585,-148"
         id="path44" />
      <text
         text-anchor="middle"
         x="521.5"
         y="-114"
         font-family="Menlo, Monaco, Consolas, Lucida Console, Courier New, monospace"
         font-size="20.00"
         fill="#000000"
         id="text46">C</text>
    </g>
    <!-- B&#45;&gt;C -->
    <g
       id="edge6"
       class="edge">
      <title
         id="title49">B-&gt;C</title>
      <path
         fill="none"
         stroke="#8f8a83"
         stroke-width="2"
         d="M347.1789,-241.1649C387.2543,-213.3098 443.4017,-174.2836 481.0406,-148.122"
         id="path51" />
      <polygon
         fill="#8f8a83"
         stroke="#8f8a83"
         stroke-width="2"
         points="345.0973,-238.3493 338.8836,-246.9307 349.0925,-244.0972 345.0973,-238.3493"
         id="polygon53" />
    </g>
    <!-- F -->
    <g
       id="node4"
       class="node">
      <title
         id="title56">F</title>
      <path
         fill="#f0efe8"
         stroke="#000000"
         stroke-width="0"
         d="M1031,-303C1031,-303 904,-303 904,-303 898,-303 892,-297 892,-291 892,-291 892,-259 892,-259 892,-253 898,-247 904,-247 904,-247 1031,-247 1031,-247 1037,-247 1043,-253 1043,-259 1043,-259 1043,-291 1043,-291 1043,-297 1037,-303 1031,-303"
         id="path58" />
      <text
         text-anchor="middle"
         x="967.5"
         y="-269"
         font-family="Menlo, Monaco, Consolas, Lucida Console, Courier New, monospace"
         font-size="20.00"
         fill="#000000"
         id="text60">F</text>
    </g>
    <!-- E&#45;&gt;F -->
    <g
       id="edge3"
       class="edge">
      <title
         id="title63">E-&gt;F</title>
      <path
         fill="none"
         stroke="#8f8a83"
         stroke-width="2"
         d="M607.25,-275C689.6616,-275 812.9955,-275 891.8442,-275"
         id="path65" />
      <polygon
         fill="#8f8a83"
         stroke="#8f8a83"
         stroke-width="2"
         points="607.1579,-271.5001 597.1578,-275 607.1578,-278.5001 607.1579,-271.5001"
         id="polygon67" />
    </g>
    <!-- X -->
    <!-- E&#45;&gt;X -->
    <!-- master -->
    <g
       id="node9"
       class="node">
      <title
         id="title75">master</title>
      <polygon
         fill="#e93a1d"
         stroke="#000000"
         stroke-width="0"
         points="1043,-395 892,-395 892,-339 1043,-339 1043,-395"
         id="polygon77" />
      <text
         text-anchor="middle"
         x="967.5"
         y="-361"
         font-family="Menlo, Monaco, Consolas, Lucida Console, Courier New, monospace"
         font-size="20.00"
         fill="#ffffff"
         id="text79">master</text>
    </g>
    <!-- F&#45;&gt;master -->
    <g
       id="edge9"
       class="edge">
      <title
         id="title82">F-&gt;master</title>
      <path
         fill="none"
         stroke="#8f8a83"
         stroke-width="2"
         d="M967.5,-313.288C967.5,-321.6966 967.5,-330.1053 967.5,-338.5139"
         id="path84" />
      <polygon
         fill="#8f8a83"
         stroke="#8f8a83"
         stroke-width="2"
         points="971.0001,-313.0312 967.5,-303.0313 964.0001,-313.0313 971.0001,-313.0312"
         id="polygon86" />
    </g>
    <!-- X&#45;&gt;F -->
    <!-- D -->
    <g
       id="node7"
       class="node">
      <title
         id="title89">D</title>
      <path
         fill="#f0efe8"
         stroke="#000000"
         stroke-width="0"
         d="M808,-148C808,-148 681,-148 681,-148 675,-148 669,-142 669,-136 669,-136 669,-104 669,-104 669,-98 675,-92 681,-92 681,-92 808,-92 808,-92 814,-92 820,-98 820,-104 820,-104 820,-136 820,-136 820,-142 814,-148 808,-148"
         id="path91" />
      <text
         text-anchor="middle"
         x="744.5"
         y="-114"
         font-family="Menlo, Monaco, Consolas, Lucida Console, Courier New, monospace"
         font-size="20.00"
         fill="#000000"
         id="text93">D</text>
    </g>
    <!-- C&#45;&gt;D -->
    <g
       id="edge7"
       class="edge">
      <title
         id="title96">C-&gt;D</title>
      <path
         fill="none"
         stroke="#8f8a83"
         stroke-width="2"
         d="M607.4571,-120C627.7075,-120 649.1458,-120 668.9009,-120"
         id="path98" />
      <polygon
         fill="#8f8a83"
         stroke="#8f8a83"
         stroke-width="2"
         points="607.3088,-116.5001 597.3088,-120 607.3088,-123.5001 607.3088,-116.5001"
         id="polygon100" />
    </g>
    <!-- D&#45;&gt;F -->
    <g
       id="edge8"
       class="edge">
      <title
         id="title103">D-&gt;F</title>
      <path
         fill="none"
         stroke="#8f8a83"
         stroke-width="2"
         d="M793.1789,-153.8351C833.2543,-181.6902 889.4017,-220.7164 927.0406,-246.878"
         id="path105" />
      <polygon
         fill="#8f8a83"
         stroke="#8f8a83"
         stroke-width="2"
         points="795.0925,-150.9028 784.8836,-148.0693 791.0973,-156.6507 795.0925,-150.9028"
         id="polygon107" />
    </g>
    <!-- topic -->
    <g
       id="node10"
       class="node">
      <title
         id="title110">topic</title>
      <polygon
         fill="#e93a1d"
         stroke="#000000"
         stroke-width="0"
         points="820,-56 669,-56 669,0 820,0 820,-56"
         id="polygon112" />
      <text
         text-anchor="middle"
         x="744.5"
         y="-22"
         font-family="Menlo, Monaco, Consolas, Lucida Console, Courier New, monospace"
         font-size="20.00"
         fill="#ffffff"
         id="text114">topic</text>
    </g>
    <!-- D&#45;&gt;topic -->
    <g
       id="edge11"
       class="edge">
      <title
         id="title117">D-&gt;topic</title>
      <path
         fill="none"
         stroke="#8f8a83"
         stroke-width="2"
         d="M744.5,-81.2572C744.5,-72.8486 744.5,-64.4399 744.5,-56.0313"
         id="path119" />
      <polygon
         fill="#8f8a83"
         stroke="#8f8a83"
         stroke-width="2"
         points="741.0001,-81.5139 744.5,-91.5139 748.0001,-81.514 741.0001,-81.5139"
         id="polygon121" />
    </g>
    <!-- HEAD -->
    <g
       id="node8"
       class="node">
      <title
         id="title124">HEAD</title>
      <polygon
         fill="#c8a036"
         stroke="#000000"
         stroke-width="0"
         points="1043,-487 892,-487 892,-431 1043,-431 1043,-487"
         id="polygon126" />
      <text
         text-anchor="middle"
         x="967.5"
         y="-453"
         font-family="Menlo, Monaco, Consolas, Lucida Console, Courier New, monospace"
         font-size="20.00"
         fill="#ffffff"
         id="text128">HEAD</text>
    </g>
    <!-- master&#45;&gt;HEAD -->
    <g
       id="edge10"
       class="edge">
      <title
         id="title131">master-&gt;HEAD</title>
      <path
         fill="none"
         stroke="#8f8a83"
         stroke-width="2"
         d="M967.5,-405.288C967.5,-413.6966 967.5,-422.1053 967.5,-430.5139"
         id="path133" />
      <polygon
         fill="#8f8a83"
         stroke="#8f8a83"
         stroke-width="2"
         points="971.0001,-405.0312 967.5,-395.0313 964.0001,-405.0313 971.0001,-405.0312"
         id="polygon135" />
    </g>
  </g>
</svg>
