<?xml version="1.0" encoding="UTF-8" standalone="no"?>
<!-- Generated by graphviz version 2.40.1 (20161225.0304)
 -->

<!-- Title: Git Pages: 1 -->

<svg
   xmlns:dc="http://purl.org/dc/elements/1.1/"
   xmlns:cc="http://creativecommons.org/ns#"
   xmlns:rdf="http://www.w3.org/1999/02/22-rdf-syntax-ns#"
   xmlns:svg="http://www.w3.org/2000/svg"
   xmlns="http://www.w3.org/2000/svg"
   xmlns:sodipodi="http://sodipodi.sourceforge.net/DTD/sodipodi-0.dtd"
   xmlns:inkscape="http://www.inkscape.org/namespaces/inkscape"
   width="1067pt"
   height="372pt"
   viewBox="0.00 0.00 1067.00 372.00"
   version="1.1"
   id="svg115"
   sodipodi:docname="linear-history-merge.svg"
   inkscape:version="0.92.2 (5c3e80d, 2017-08-06)">
  <metadata
     id="metadata121">
    <rdf:RDF>
      <cc:Work
         rdf:about="">
        <dc:format>image/svg+xml</dc:format>
        <dc:type
           rdf:resource="http://purl.org/dc/dcmitype/StillImage" />
      </cc:Work>
    </rdf:RDF>
  </metadata>
  <defs
     id="defs119" />
  <sodipodi:namedview
     pagecolor="#ffffff"
     bordercolor="#666666"
     borderopacity="1"
     objecttolerance="10"
     gridtolerance="10"
     guidetolerance="10"
     inkscape:pageopacity="0"
     inkscape:pageshadow="2"
     inkscape:window-width="1920"
     inkscape:window-height="1017"
     id="namedview117"
     showgrid="false"
     inkscape:zoom="0.9476689"
     inkscape:cx="705.99999"
     inkscape:cy="248"
     inkscape:window-x="-6"
     inkscape:window-y="-6"
     inkscape:window-maximized="1"
     inkscape:current-layer="graph0" />
  <g
     id="graph0"
     class="graph"
     transform="scale(1 1) rotate(0) translate(4 368)">
    <title
       id="title2">Git</title>
    <!-- A -->
    <g
       id="node1"
       class="node">
      <title
         id="title9">A</title>
      <path
         fill="#f0efe8"
         stroke="#000000"
         stroke-width="0"
         d="M139,-164C139,-164 12,-164 12,-164 6,-164 0,-158 0,-152 0,-152 0,-120 0,-120 0,-114 6,-108 12,-108 12,-108 139,-108 139,-108 145,-108 151,-114 151,-120 151,-120 151,-152 151,-152 151,-158 145,-164 139,-164"
         id="path11" />
      <text
         text-anchor="middle"
         x="75.5"
         y="-130"
         font-family="Menlo, Monaco, Consolas, Lucida Console, Courier New, monospace"
         font-size="20.00"
         fill="#000000"
         id="text13">A</text>
    </g>
    <!-- B -->
    <g
       id="node2"
       class="node">
      <title
         id="title16">B</title>
      <path
         fill="#f0efe8"
         stroke="#000000"
         stroke-width="0"
         d="M362,-164C362,-164 235,-164 235,-164 229,-164 223,-158 223,-152 223,-152 223,-120 223,-120 223,-114 229,-108 235,-108 235,-108 362,-108 362,-108 368,-108 374,-114 374,-120 374,-120 374,-152 374,-152 374,-158 368,-164 362,-164"
         id="path18" />
      <text
         text-anchor="middle"
         x="298.5"
         y="-130"
         font-family="Menlo, Monaco, Consolas, Lucida Console, Courier New, monospace"
         font-size="20.00"
         fill="#000000"
         id="text20">B</text>
    </g>
    <!-- A&#45;&gt;B -->
    <g
       id="edge1"
       class="edge">
      <title
         id="title23">A-&gt;B</title>
      <path
         fill="none"
         stroke="#8f8a83"
         stroke-width="2"
         d="M161.4571,-136C181.7075,-136 203.1458,-136 222.9009,-136"
         id="path25" />
      <polygon
         fill="#8f8a83"
         stroke="#8f8a83"
         stroke-width="2"
         points="161.3088,-132.5001 151.3088,-136 161.3088,-139.5001 161.3088,-132.5001"
         id="polygon27" />
    </g>
    <!-- C -->
    <g
       id="node3"
       class="node">
      <title
         id="title30">C</title>
      <path
         fill="#f0efe8"
         stroke="#000000"
         stroke-width="0"
         d="M585,-164C585,-164 458,-164 458,-164 452,-164 446,-158 446,-152 446,-152 446,-120 446,-120 446,-114 452,-108 458,-108 458,-108 585,-108 585,-108 591,-108 597,-114 597,-120 597,-120 597,-152 597,-152 597,-158 591,-164 585,-164"
         id="path32" />
      <text
         text-anchor="middle"
         x="521.5"
         y="-130"
         font-family="Menlo, Monaco, Consolas, Lucida Console, Courier New, monospace"
         font-size="20.00"
         fill="#000000"
         id="text34">C</text>
    </g>
    <!-- B&#45;&gt;C -->
    <g
       id="edge2"
       class="edge">
      <title
         id="title37">B-&gt;C</title>
      <path
         fill="none"
         stroke="#8f8a83"
         stroke-width="2"
         d="M384.4571,-136C404.7075,-136 426.1458,-136 445.9009,-136"
         id="path39" />
      <polygon
         fill="#8f8a83"
         stroke="#8f8a83"
         stroke-width="2"
         points="384.3088,-132.5001 374.3088,-136 384.3088,-139.5001 384.3088,-132.5001"
         id="polygon41" />
    </g>
    <!-- D -->
    <g
       id="node4"
       class="node">
      <title
         id="title44">D</title>
      <path
         fill="#f0efe8"
         stroke="#000000"
         stroke-width="0"
         d="M808,-164C808,-164 681,-164 681,-164 675,-164 669,-158 669,-152 669,-152 669,-120 669,-120 669,-114 675,-108 681,-108 681,-108 808,-108 808,-108 814,-108 820,-114 820,-120 820,-120 820,-152 820,-152 820,-158 814,-164 808,-164"
         id="path46" />
      <text
         text-anchor="middle"
         x="744.5"
         y="-130"
         font-family="Menlo, Monaco, Consolas, Lucida Console, Courier New, monospace"
         font-size="20.00"
         fill="#000000"
         id="text48">D</text>
    </g>
    <!-- C&#45;&gt;D -->
    <g
       id="edge3"
       class="edge">
      <title
         id="title51">C-&gt;D</title>
      <path
         fill="none"
         stroke="#8f8a83"
         stroke-width="2"
         d="M607.4571,-136C627.7075,-136 649.1458,-136 668.9009,-136"
         id="path53" />
      <polygon
         fill="#8f8a83"
         stroke="#8f8a83"
         stroke-width="2"
         points="607.3088,-132.5001 597.3088,-136 607.3088,-139.5001 607.3088,-132.5001"
         id="polygon55" />
    </g>
    <!-- E -->
    <g
       id="node5"
       class="node">
      <title
         id="title58">E</title>
      <path
         fill="#f0efe8"
         stroke="#000000"
         stroke-width="0"
         d="M1031,-164C1031,-164 904,-164 904,-164 898,-164 892,-158 892,-152 892,-152 892,-120 892,-120 892,-114 898,-108 904,-108 904,-108 1031,-108 1031,-108 1037,-108 1043,-114 1043,-120 1043,-120 1043,-152 1043,-152 1043,-158 1037,-164 1031,-164"
         id="path60" />
      <text
         text-anchor="middle"
         x="967.5"
         y="-130"
         font-family="Menlo, Monaco, Consolas, Lucida Console, Courier New, monospace"
         font-size="20.00"
         fill="#000000"
         id="text62">E</text>
    </g>
    <!-- D&#45;&gt;E -->
    <g
       id="edge4"
       class="edge">
      <title
         id="title65">D-&gt;E</title>
      <path
         fill="none"
         stroke="#8f8a83"
         stroke-width="2"
         d="M830.4571,-136C850.7075,-136 872.1458,-136 891.9009,-136"
         id="path67" />
      <polygon
         fill="#8f8a83"
         stroke="#8f8a83"
         stroke-width="2"
         points="830.3088,-132.5001 820.3088,-136 830.3088,-139.5001 830.3088,-132.5001"
         id="polygon69" />
    </g>
    <!-- master -->
    <g
       id="node7"
       class="node">
      <title
         id="title72">master</title>
      <polygon
         fill="#e93a1d"
         stroke="#000000"
         stroke-width="0"
         points="1043,-256 892,-256 892,-200 1043,-200 1043,-256"
         id="polygon74" />
      <text
         text-anchor="middle"
         x="967.5"
         y="-222"
         font-family="Menlo, Monaco, Consolas, Lucida Console, Courier New, monospace"
         font-size="20.00"
         fill="#ffffff"
         id="text76">master</text>
    </g>
    <!-- E&#45;&gt;master -->
    <g
       id="edge5"
       class="edge">
      <title
         id="title79">E-&gt;master</title>
      <path
         fill="none"
         stroke="#8f8a83"
         stroke-width="2"
         d="M967.5,-174.288C967.5,-182.6966 967.5,-191.1053 967.5,-199.5139"
         id="path81" />
      <polygon
         fill="#8f8a83"
         stroke="#8f8a83"
         stroke-width="2"
         points="971.0001,-174.0312 967.5,-164.0313 964.0001,-174.0313 971.0001,-174.0312"
         id="polygon83" />
    </g>
    <!-- topic -->
    <g
       id="node8"
       class="node">
      <title
         id="title86">topic</title>
      <polygon
         fill="#e93a1d"
         stroke="#000000"
         stroke-width="0"
         points="1043,-72 892,-72 892,-16 1043,-16 1043,-72"
         id="polygon88" />
      <text
         text-anchor="middle"
         x="967.5"
         y="-38"
         font-family="Menlo, Monaco, Consolas, Lucida Console, Courier New, monospace"
         font-size="20.00"
         fill="#ffffff"
         id="text90">topic</text>
    </g>
    <!-- E&#45;&gt;topic -->
    <g
       id="edge7"
       class="edge">
      <title
         id="title93">E-&gt;topic</title>
      <path
         fill="none"
         stroke="#8f8a83"
         stroke-width="2"
         d="M967.5,-97.2572C967.5,-88.8486 967.5,-80.4399 967.5,-72.0313"
         id="path95" />
      <polygon
         fill="#8f8a83"
         stroke="#8f8a83"
         stroke-width="2"
         points="964.0001,-97.5139 967.5,-107.5139 971.0001,-97.514 964.0001,-97.5139"
         id="polygon97" />
    </g>
    <!-- HEAD -->
    <g
       id="node6"
       class="node">
      <title
         id="title100">HEAD</title>
      <polygon
         fill="#c8a036"
         stroke="#000000"
         stroke-width="0"
         points="1043,-348 892,-348 892,-292 1043,-292 1043,-348"
         id="polygon102" />
      <text
         text-anchor="middle"
         x="967.5"
         y="-314"
         font-family="Menlo, Monaco, Consolas, Lucida Console, Courier New, monospace"
         font-size="20.00"
         fill="#ffffff"
         id="text104">HEAD</text>
    </g>
    <!-- master&#45;&gt;HEAD -->
    <g
       id="edge6"
       class="edge">
      <title
         id="title107">master-&gt;HEAD</title>
      <path
         fill="none"
         stroke="#8f8a83"
         stroke-width="2"
         d="M967.5,-266.288C967.5,-274.6966 967.5,-283.1053 967.5,-291.5139"
         id="path109" />
      <polygon
         fill="#8f8a83"
         stroke="#8f8a83"
         stroke-width="2"
         points="971.0001,-266.0312 967.5,-256.0313 964.0001,-266.0313 971.0001,-266.0312"
         id="polygon111" />
    </g>
  </g>
</svg>
